<?xml version="1.0" standalone="no"?>
<!DOCTYPE svg PUBLIC "-//W3C//DTD SVG 20010904//EN"
 "http://www.w3.org/TR/2001/REC-SVG-20010904/DTD/svg10.dtd">
<svg version="1.0" xmlns="http://www.w3.org/2000/svg"
 width="398.000000pt" height="130.000000pt" viewBox="0 0 398.000000 130.000000"
 preserveAspectRatio="xMidYMid meet">

<g transform="translate(0.000000,130.000000) scale(0.100000,-0.100000)"
fill="#000000" stroke="none">
<path d="M185 1178 c-2 -7 -6 -40 -10 -74 -3 -33 -37 -188 -75 -345 -39 -156
-70 -298 -70 -316 0 -37 43 -94 58 -78 18 19 109 340 144 505 l14 65 28 -85
c61 -181 97 -240 147 -240 40 0 79 38 220 211 67 82 123 148 125 147 1 -2 -12
-55 -31 -118 -45 -155 -85 -338 -85 -388 0 -22 4 -52 10 -67 9 -25 35 -43 46
-32 3 3 33 108 65 234 32 125 72 275 87 333 47 171 48 186 13 221 -16 16 -34
29 -39 29 -23 0 -73 -55 -223 -244 -88 -110 -164 -202 -168 -204 -16 -6 -141
313 -141 359 0 25 -70 99 -94 99 -9 0 -18 -6 -21 -12z"/>
<path d="M3440 1167 c-56 -15 -62 -37 -20 -78 27 -28 35 -31 68 -25 139 25
283 14 318 -25 17 -19 16 -21 -12 -62 -17 -23 -79 -84 -139 -136 -355 -302
-390 -355 -297 -448 l35 -36 116 6 c130 7 220 24 307 59 87 34 87 84 -1 73
-22 -2 -96 -12 -165 -20 -153 -20 -213 -18 -218 8 -5 25 8 39 199 203 216 186
279 261 279 333 0 35 -46 93 -92 117 -75 39 -283 55 -378 31z"/>
<path d="M1601 937 c-6 -6 -11 -29 -11 -52 0 -85 -22 -215 -57 -339 -33 -117
-35 -131 -22 -154 23 -40 44 -49 68 -28 11 10 66 91 122 180 169 266 202 304
241 269 29 -26 20 -107 -31 -264 -46 -141 -52 -199 -23 -199 36 0 82 80 126
218 59 189 56 273 -14 336 -44 40 -77 45 -115 20 -33 -21 -117 -135 -194 -259
-33 -54 -61 -96 -61 -91 0 4 9 42 19 84 36 141 44 202 30 234 -15 36 -60 63
-78 45z"/>
<path d="M1183 919 c-119 -59 -263 -290 -263 -421 0 -48 3 -54 45 -94 79 -76
158 -70 251 20 30 29 56 50 59 48 3 -3 5 -16 5 -29 0 -36 27 -93 44 -93 8 0
17 12 20 28 19 94 46 274 45 308 0 21 3 58 7 82 8 55 -7 92 -57 137 -47 42
-92 46 -156 14z m126 -110 c15 -42 14 -62 -4 -96 -8 -15 -25 -54 -39 -85 -26
-61 -93 -141 -137 -164 -37 -19 -84 -18 -104 3 -61 60 141 373 240 373 28 0
35 -5 44 -31z"/>
<path d="M2389 920 c-47 -25 -139 -124 -178 -194 -94 -164 -94 -298 1 -356 46
-28 94 -25 157 10 30 17 56 29 57 27 7 -7 -46 -189 -66 -227 -45 -89 -102 -89
-187 -1 -52 54 -55 55 -68 37 -55 -73 47 -176 173 -176 115 0 152 51 227 314
25 87 60 187 77 221 30 62 31 63 21 156 -5 52 -18 112 -28 133 -34 71 -112 95
-186 56z m120 -109 c7 -15 16 -50 20 -77 7 -43 4 -56 -22 -107 -63 -122 -221
-218 -267 -162 -34 41 44 227 135 320 44 46 59 55 88 55 29 0 37 -5 46 -29z"/>
<path d="M2953 919 c-119 -59 -263 -290 -263 -421 0 -48 3 -54 45 -94 79 -76
158 -70 251 20 30 29 56 50 59 48 3 -3 5 -16 5 -29 0 -36 27 -93 44 -93 8 0
17 12 20 28 19 94 46 274 45 308 0 21 3 58 7 82 8 55 -7 92 -57 137 -47 42
-92 46 -156 14z m126 -110 c15 -42 14 -62 -4 -96 -8 -15 -25 -54 -39 -85 -26
-61 -93 -141 -137 -164 -37 -19 -84 -18 -104 3 -61 60 141 373 240 373 28 0
35 -5 44 -31z"/>
</g>
</svg>
